<svg xmlns="http://www.w3.org/2000/svg" width="16" height="11.199" viewBox="0 0 16 11.199">
  <g id="Group_682" data-name="Group 682" transform="translate(-1140.996 -410.996)">
    <path id="Path_1673" data-name="Path 1673" d="M17.889,10.2C17.377,9.309,14.562,4.855,9.78,5,5.358,5.111,2.8,9,2.1,10.2a.8.8,0,0,0,0,.8c.5.872,3.2,5.2,7.909,5.2h.2c4.422-.112,6.989-4,7.677-5.2A.8.8,0,0,0,17.889,10.2Zm-7.717,4.4c-3.447.08-5.694-2.871-6.4-4,.8-1.287,2.887-3.918,6.086-4,3.431-.088,5.686,2.871,6.4,4-.824,1.287-2.887,3.918-6.086,4Z" transform="translate(1139 406)" fill="#9196b1"/>
    <path id="Path_1674" data-name="Path 1674" d="M11.3,8.5a2.8,2.8,0,1,0,2.8,2.8,2.8,2.8,0,0,0-2.8-2.8Zm0,4a1.2,1.2,0,1,1,1.2-1.2A1.2,1.2,0,0,1,11.3,12.5Z" transform="translate(1137.697 405.298)" fill="#9196b1"/>
  </g>
</svg>
